<?xml version="1.0" encoding="UTF-8" standalone="no"?>
<!DOCTYPE svg PUBLIC "-//W3C//DTD SVG 1.1//EN" "http://www.w3.org/Graphics/SVG/1.1/DTD/svg11.dtd">
<!-- Passed misc2svg (http://www.network-science.de/tools/misc2svg/) -->
<svg
    version="1.1"
    id="svg11301"
    xmlns:svg="http://www.w3.org/2000/svg"
    xmlns="http://www.w3.org/2000/svg"
    xmlns:xlink="http://www.w3.org/1999/xlink"
    x="0px"
    y="0px"
    width="400.003px"
    height="199.998px"
    viewBox="0 0 400.003 199.998"
    enable-background="new 0 0 400.003 199.998"
    xml:space="preserve">

<g
      id="g11309"
      transform="matrix(1.25,0,0,-1.25,-367.57573,616.86075)">
	<path
        id="path252"
        fill="#155195"
        d="M454.061,493.488h-160v-160h160V493.488z"></path>
	<g
        id="g254"
        transform="matrix(2.4541006,0,0,2.4541006,414.81657,442.58614)">
		<path
          id="path256"
          fill="#FFFFFF"
          d="M0,0l0.207-1.776l1.736-0.422L0.319-2.944l0.134-1.782    l-1.21,1.314L-2.412-4.09l0.876,1.558l-1.156,1.364l1.753-0.353L0,0z"></path>
	</g>
	<g
        id="g258"
        transform="matrix(2.4541006,0,0,2.4541006,395.96147,415.34488)">
		<path
          id="path260"
          fill="#FFFFFF"
          d="M0,0l1.007-2.086L3.32-1.953L2.317-4.041l1.545-1.725    L1.605-6.284L1.22-8.569l-1.814,1.443L-2.62-8.249l-0.001,2.317l-2.143,0.883l1.811,1.447l-0.645,2.225l2.26-0.514L0,0z"></path>
	</g>
	<g
        id="g262"
        transform="matrix(2.4541006,0,0,2.4541006,416.23037,481.44559)">
		<path
          id="path264"
          fill="#FFFFFF"
          d="M0,0l1.239-1.724L3.305-1.24L2.73-3.284l1.668-1.314    L2.44-5.421l0.012-2.125L0.588-6.529l-1.654-1.335l-0.367,2.093L-3.506-5.31l1.408,1.591l-0.934,1.908l2.122-0.107L0,0z"></path>
	</g>
	<g
        id="g266"
        transform="matrix(2.4541006,0,0,2.4541006,431.0848,459.99258)">
		<path
          id="path268"
          fill="#FFFFFF"
          d="M0,0l1.238-1.726l2.069,0.485L2.729-3.285L4.397-4.6    L2.441-5.424l0.012-2.124L0.588-6.529l-1.654-1.334l-0.367,2.092l-2.073,0.459l1.407,1.593l-0.933,1.907l2.121-0.107L0,0z"></path>
	</g>
	<g
        id="g270"
        transform="matrix(2.4541006,0,0,2.4541006,381.15808,455.86675)">
		<path
          id="path272"
          fill="#FFFFFF"
          d="M0,0l1.236-1.726l2.07,0.483L2.729-3.286L4.398-4.6    L2.44-5.424l0.011-2.123L0.588-6.53l-1.654-1.334l-0.368,2.092l-2.072,0.461l1.406,1.59l-0.932,1.909l2.121-0.107L0,0z"></path>
	</g>
	<g
        id="g274"
        transform="matrix(2.4541006,0,0,2.4541006,318.56379,371.43783)">
		<path
          id="path276"
          fill="#FFFFFF"
          d="M0,0l1.239-1.725l2.068,0.484L2.73-3.285l1.668-1.314    L2.441-5.423l0.011-2.123L0.588-6.529l-1.653-1.333l-0.367,2.091L-3.506-5.31l1.408,1.591l-0.934,1.908l2.122-0.108L0,0z"></path>
	</g>
	<path
        id="path278"
        fill="#BF2519"
        d="M614.061,493.487h-160v-160h160V493.487z"></path>
	<g
        id="g280"
        transform="matrix(2.4541006,0,0,2.4541006,304.83163,187.63674)">
		<path
          id="path282"
          fill="#FFFFFF"
          d="M65.197,65.197v16.278h3.666V68.241h7.701v-3.044H65.197z"></path>
	</g>
	<g
        id="g284"
        transform="matrix(2.4541006,0,0,2.4541006,227.97656,-167.37862)">
		<g>
			<defs>
				<rect
              id="SVGID_1_"
              x="24.722"
              y="69.292"
              width="200.003"
              height="399.999"></rect>
			</defs>
			<clipPath id="SVGID_2_">
				<use
              xlink:href="#SVGID_1_"
              overflow="visible"></use>
			</clipPath>
			<g
            id="g286"
            clip-path="url(#SVGID_2_)">
				<g
              id="g292"
              transform="translate(51.303,150.3804)">
					<path
                id="path294"
                fill="#FFFFFF"
                d="M65.197,65.197c-0.277-0.114-0.553-0.208-0.83-0.276       c-1.083-0.277-3.551-0.3-3.551-1.845c0-0.899,0.807-1.268,1.591-1.268c1.13,0,2.213,0.553,2.79,1.545V65.197z M65.451,59.479       l-0.162,1.085c-1.315-0.924-2.051-1.43-3.759-1.43c-2.305,0-4.15,1.43-4.15,3.85c0,3.389,3.298,3.689,5.88,4.058       c0.6,0.092,1.845,0.138,1.845,0.991c0,0.922-1.107,1.107-1.821,1.107c-0.946,0-2.145-0.323-2.099-1.499h-3.136       c0.161,2.974,2.398,4.127,5.096,4.127c1.982,0,4.219-0.323,5.095-2.398c0.369-0.899,0.323-2.282,0.323-3.25v-4.012       c0-0.623,0.023-2.145,0.461-2.629H65.451z"></path>
				</g>
				<g
              id="g296"
              transform="translate(61.5857,154.1387)">
					<path
                id="path298"
                fill="#FFFFFF"
                d="M65.197,65.196c-1.983,0-2.514-1.775-2.514-3.435       c0-1.661,0.416-3.552,2.444-3.552c1.96,0,2.375,2.145,2.375,3.691C67.502,63.398,67.017,65.196,65.197,65.196 M65.888,55.375       c-1.383,0-2.328,0.577-3.251,1.568l0.069-1.223H59.34v16.278h3.366v-5.21c0.83,0.853,1.983,1.2,3.16,1.2       c3.527,0,5.049-2.953,5.049-6.087C70.915,58.695,69.554,55.375,65.888,55.375"></path>
				</g>
				<g
              id="g300"
              transform="translate(74.2664,154.2307)">
					<path
                id="path302"
                fill="#FFFFFF"
                d="M65.197,65.196c-2.051,0-2.743-1.752-2.743-3.527       c0-1.73,0.646-3.62,2.697-3.62c2.098,0,2.698,1.959,2.698,3.735C67.849,63.49,67.203,65.196,65.197,65.196 M65.037,55.283       c-3.736,0-6.065,2.582-6.065,6.249c0,3.873,2.514,6.386,6.387,6.386c3.666,0,5.972-2.697,5.972-6.271       C71.331,57.958,68.748,55.283,65.037,55.283"></path>
				</g>
				<g
              id="g304"
              transform="translate(87.3858,153.7696)">
					<path
                id="path306"
                fill="#FFFFFF"
                d="M65.197,65.197c-2.375,0-2.651-1.452-2.697-3.389       c-0.024-0.599-0.024-1.222-0.024-1.822V56.09h-3.481v11.944h3.32v-1.961c0.576,1.5,1.476,2.191,3.09,2.191       c0.207,0,0.391-0.023,0.599-0.046v-3.089C65.727,65.175,65.473,65.197,65.197,65.197"></path>
				</g>
				<g
              id="g308"
              transform="translate(64.4032,163.7807)">
					<path
                id="path310"
                fill="#FFFFFF"
                d="M65.197,65.196l-0.956-2.672h1.913L65.197,65.196z        M66.775,60.809l-0.529,1.471h-2.091l-0.529-1.471h-0.29l1.69,4.658h0.342l1.696-4.658H66.775z"></path>
				</g>
				<g
              id="g312"
              transform="translate(69.0941,159.3926)">
					<path
                id="path314"
                fill="#FFFFFF"
                d="M65.197,65.196v0.633       c-0.184-0.468-0.632-0.706-1.121-0.706c-0.218,0-0.476,0.046-0.66,0.179c-0.35,0.25-0.416,0.6-0.416,1.002v2.31h0.258v-2.35       c0-0.566,0.244-0.91,0.851-0.91c0.244,0,0.488,0.079,0.673,0.237c0.389,0.343,0.415,0.779,0.415,1.26v1.763h0.251v-3.418       H65.197z"></path>
				</g>
				<g
              id="g316"
              transform="translate(71.3317,159.3132)">
					<path
                id="path318"
                fill="#FFFFFF"
                d="M65.197,65.197c-0.739,0-1.114,0.363-1.234,1.068       l0.278,0.048c0.012-0.087,0.026-0.172,0.046-0.258c0.125-0.455,0.488-0.614,0.937-0.614c0.475,0,0.884,0.218,0.884,0.739       c0,0.429-0.283,0.548-0.64,0.666c-0.555,0.186-1.293,0.278-1.293,1.024c0,0.6,0.508,0.904,1.061,0.904       c0.429,0,0.833-0.159,1.004-0.581c0.04-0.106,0.06-0.211,0.079-0.323l-0.264-0.047c-0.046,0.501-0.336,0.713-0.825,0.713       c-0.429,0-0.793-0.197-0.793-0.666v-0.013c0-0.357,0.199-0.463,0.51-0.581c0.309-0.119,0.732-0.178,1.01-0.35       c0.277-0.172,0.422-0.415,0.422-0.739C66.379,65.514,65.811,65.197,65.197,65.197"></path>
				</g>
				<g
              id="g320"
              transform="translate(73.9855,159.3531)">
					<path
                id="path322"
                fill="#FFFFFF"
                d="M65.197,65.196c-0.456,0-0.594,0.317-0.594,0.712v2.515       h-0.449v0.231h0.449v0.772h0.257v-0.772h0.587v-0.239H64.86v-2.507c0-0.251,0.066-0.462,0.356-0.462       c0.079,0,0.158,0.006,0.238,0.014v-0.245C65.374,65.196,65.276,65.196,65.197,65.196"></path>
				</g>
				<g
              id="g324"
              transform="translate(75.1328,161.2474)">
					<path
                id="path326"
                fill="#FFFFFF"
                d="M65.197,65.197v-1.855H64.94v3.418h0.257v-0.62       c0.165,0.489,0.535,0.68,1.037,0.68v-0.264C65.355,66.556,65.197,65.936,65.197,65.197"></path>
				</g>
				<g
              id="g328"
              transform="translate(78.7224,161.3125)">
					<path
                id="path330"
                fill="#FFFFFF"
                d="M65.197,65.197c-0.409-0.132-0.837-0.192-1.254-0.284       c-0.139-0.027-0.277-0.059-0.401-0.125c-0.224-0.126-0.344-0.329-0.344-0.587c0-0.515,0.363-0.759,0.851-0.759       c0.706,0,1.148,0.462,1.148,1.155V65.197z M65.613,63.277c-0.27,0-0.408,0.085-0.408,0.383c0,0.078,0.006,0.158,0.012,0.238       c-0.231-0.47-0.68-0.694-1.187-0.694c-0.601,0-1.096,0.344-1.096,0.983c0,0.978,1.082,0.95,1.775,1.095       c0.086,0.02,0.377,0.08,0.429,0.152c0.046,0.06,0.059,0.127,0.059,0.198v0.231c0,0.502-0.455,0.686-0.883,0.686       c-0.568,0-0.945-0.217-0.991-0.804l-0.263,0.005c0.072,0.741,0.534,1.031,1.254,1.031c0.645,0,1.134-0.258,1.134-0.97v-1.986       c0-0.179,0-0.317,0.224-0.317h0.126v-0.231H65.613z"></path>
				</g>
				<path
              id="path332"
              fill="#FFFFFF"
              d="M145.161,229.247h0.256v-4.658h-0.256V229.247z"></path>
				<path
              id="path334"
              fill="#FFFFFF"
              d="M146.395,228.007h0.258v-3.418h-0.258V228.007z       M146.38,229.247h0.291v-0.488h-0.291V229.247z"></path>
				<g
              id="g336"
              transform="translate(84.4905,161.3125)">
					<path
                id="path338"
                fill="#FFFFFF"
                d="M65.197,65.197c-0.409-0.132-0.838-0.192-1.254-0.284       c-0.139-0.027-0.277-0.059-0.403-0.125c-0.224-0.126-0.342-0.329-0.342-0.587c0-0.515,0.363-0.759,0.852-0.759       c0.705,0,1.147,0.462,1.147,1.155V65.197z M65.612,63.277c-0.269,0-0.408,0.085-0.408,0.383c0,0.078,0.006,0.158,0.012,0.238       c-0.23-0.47-0.679-0.694-1.188-0.694c-0.6,0-1.095,0.344-1.095,0.983c0,0.978,1.082,0.95,1.776,1.095       c0.085,0.02,0.376,0.08,0.428,0.152c0.047,0.06,0.06,0.127,0.06,0.198v0.231c0,0.502-0.456,0.686-0.884,0.686       c-0.568,0-0.944-0.217-0.99-0.804l-0.264,0.005c0.072,0.741,0.535,1.031,1.254,1.031c0.647,0,1.135-0.258,1.135-0.97v-1.986       c0-0.179,0-0.317,0.224-0.317h0.125v-0.231H65.612z"></path>
				</g>
				<g
              id="g340"
              transform="translate(87.9285,159.3926)">
					<path
                id="path342"
                fill="#FFFFFF"
                d="M65.197,65.196V67.5c0,0.594-0.224,0.949-0.864,0.949       c-0.205,0-0.403-0.052-0.575-0.165c-0.429-0.276-0.5-0.691-0.5-1.16v-1.927h-0.259v3.418h0.251v-0.594       c0.218,0.447,0.64,0.667,1.128,0.667c0.496,0,0.906-0.22,1.037-0.72c0.046-0.19,0.046-0.395,0.046-0.594v-2.177H65.197z"></path>
				</g>
			</g>
		</g>
	</g>
</g>
</svg>
